<?xml version="1.0" encoding="UTF-8"?>
<svg data-bbox="0 0 2048 2048" xmlns="http://www.w3.org/2000/svg" height="1280" width="1280" viewBox="0 0 2048 2048" data-type="ugc">
    <g>
        <path fill="#010101" d="M0 0h2048v2048H0z"/>
        <path fill="#FDFBF8" d="M924 572h56l19 3 19 5 21 8 7 2v2l6 2 22 13 13 10 7 6 4 2 7 8 9 9 3 2 3 5 9 11v2h2l4 7 9 15 8 16 7 18 5 17 4 20 2 18v21l-2 26-5 26-7 20-7 16-11 21-14 20-7 7-7 8-17 17-17 13-24 14-25 11-26 8-16 3-12 1h-43l-24-4-21-6-21-8-20-10-11-6v-2l-4-2-3-1-1-2-3-1-5-5-5-3-4-5-8-7-5-5-10-11-10-13-9-14-10-18-8-20-5-15-5-23-2-14v-42l3-22 7-26 8-20 9-19 9-14 15-20h2l2-4 22-22 13-10 16-10 18-10 25-10 22-6z"/>
        <path fill="#FDFDFC" d="M798 1112h17l14 22 16 26 9 14 15 25 12 19 15 24 11 18 4 2v-123l1-27h46v200l-1 28-2 1h-46l-5-9-12-19-15-24-13-21-15-24-12-19-12-20-7-10h-2l-1 3v60l-2 18-4 16-4 10-7 11-8 9-11 8-15 8-6 2-9 2-8 2h-46l-14-3-16-6-13-7-12-11-9-14-6-15-3-13-1-90v-68l16-1h18l12 1 3 1 1 144 1 14 5 10 9 10 8 4 12 3h24l15-4 9-6 6-10 3-9 1-7 1-106 1-46 9-2z"/>
        <path fill="#FDFDFD" d="M357 1113h69l16 48 14 41 16 47 7 18 2 1 3-10 17-52 16-50 13-40 2-3h66l2 2 1 30v163l-1 32h-44l-1-3-1-153-3 1-17 49-15 43-14 41-7 20-1 2h-37l-9-24-22-63-17-49-7-18v-2h-3l-1 140-1 16h-43l-1-1v-223z"/>
        <path fill="#74622E" d="m1384 1108 4 1-5 4-6 4-8 6-14 10-5 5-10 9-8 7-15 14-13 11-13 10-18 11-14 6-24 8-14 3-12 1-7 1v3l6 1 39 1 22 2 8 2 13 2 12 3 25 5 17 4 25 4 15 1h33l28-6 12-4h3l-1 3-14 10-18 10-19 8-25 7-17 3-22 3h-39l-34-4-22-6-16-6-24-11-23-13-2-1v-2l-5-1-8-4v-2l-9-2v-2l-5-1-5-3-8-3-4-3v-2h-2v-3l2-1 10-1 2-1 10-1 4-2 7-2 5-2 9-1v-2l7-3 19-10 23-13 15-9 18-11 15-9 20-11 10-4 14-5 26-8 25-7z"/>
        <path fill="#625328" d="m1501 1036 1 2-9 13-8 11-8 13-27 48-10 15-11 13-18 18-10 7-27 14-3 3 11-1 30-9 22-5 15-4 16-2 2-1 17-1 42-6 13-3 20-6 21-10 18-11 2 1-12 16-11 12-9 9-15 11-19 12-21 10-21 7-31 7-11 1-3 1-11 1h-38l-13-2-26-2-13-2-27-2-21-3-5-2v-2l9-4 12-6 13-8 12-9 17-14 15-15 5-2 2-4 24-24 7-8 39-39 11-9 17-13 17-11z"/>
        <path fill="#F1D894" d="m996 1141 7 1 11 5 8 3v2l7 1 7 3 13 2 14 3h38l13-2h11v-2l36-3 28-1h43l5 1v2l-17 7-23 10-17 9-7 1v2l-10 4h-4v2l-17 5-25 3-10-1-8-1v-2h-12l-16-6-9-3h-4l1 3 19 11 11 5v2l6 2 5 2 4 4 9 4 2 1v2l4 1v2l7 2 1 2 7 4v2h3l3 3 7 4 9 6v2l5 2 13 8v2l5 1v2h3v2l5 2 21 10 13 6 17 6 14 3 3 1 30 1 2 2-9 4-23 6-6 1h-49l-18-3-6-2-7-1v-2h-7l-14-5-12-5-6-3v-2l-5-1-14-9v-2l-4-1-15-12-7-8-16-16-7-8-9-10-11-14-10-13-11-14-13-16-11-15z"/>
        <path fill="#887236" d="M1582 926h2l-2 11-5 20-4 25-3 24-3 16-1 2-1 9-5 18-12 25-7 10-10 13-8 9-1 2 9-6 11-8 5-4 16-12 14-9 22-12 12-7 11-6 26-14 11-7 2-2h3l1-3 13-10 10-10 11-14 3-5h2l-2 10-4 10-8 16h-2l-2 6-3 7-4 4-3 6-9 12-5 5-14 15-8 7-5 6-14 11-14 10-20 12-20 9-18 6-12 2-10 3-25 5-20 5-5 1-21 5v-3l7-9 11-13 9-11 4-7 6-10 18-45 17-38 11-23 11-21 11-19 10-15 10-13z"/>
        <path fill="#B4984A" d="M1629 810h2l2 39 4 20 3 24 1 13v29l-3 19-5 15-4 7v4l8-10 12-16 14-17 9-11 4-5 4-4 7-8 12-13 12-11h2l2-4 6-7h2l2-5 5-5 4-8 3-1v-3h2v-3h2l3-10 2-4h2l1-7 3-10h2v30l-4 21-6 21-4 8-5 12-4 9-3 4-2 5h-2v3h-2l-1 5h-2l-1 4-7 9-2 4-8 7-17 17-5 4-5 5-6 4-8 5h-2v2l-9 5h-3v2l-5 1v2l-5 1-2 4-11 6-11 7-6 4-11 8-12 10h-2l1-6 10-28 3-17 3-21 3-58 3-33 6-30 6-18 11-23z"/>
        <path fill="#B19649" d="M1497 663h2l8 20 5 13 6 16 8 16 9 23 5 16 2 19 1 19v19l-2 22-4 19-6 20-10 24-9 16-8 11-1-4 5-17 2-17v-30l-3-31-4-29-2-14-1-35-1-10-10 26-9 17-10 13-54 54-7 8-9 11-2 1 1-7 5-16 10-24 8-17 13-23 13-24 8-13 18-27 8-16 7-19z"/>
        <path fill="#74622E" d="m1485 812 2 4 1 55 1 15v42l-4 25-7 21-8 18-9 16-12 18-9 10-4 4-8 7-14 11-7 4 2-5 6-7 10-19 6-17 4-17 3-21 8-38 8-27 5-19-1-3-13 17-12 12-13 10-11 6-16 9-32 16-24 16 1-6 11-19 10-14 12-13 6-7 8-7 10-9 16-12 11-9 9-7 15-13 8-8 8-7 9-11 11-17z"/>
        <path fill="#F0D693" d="m1657 688 2 1v13l2 22 4 20 3 11 4 18 5 17 2 7 1 30v21l4-2 3-7h2l2-10 8-20 1-2h2l1-6 7-15h2l2-9 3-6h2l6-18h2l1-5 5-15 1-4 1-35 4 2 4 8 6 20 2 5v53l-4 15-3 8h-2l-1 5-8 15-8 12-7 9-3 5h-2v2l-5 5-5 7-5 5-7 8-5 5-7 8-3 5-5 5-6 10-5 5-1-3-1-33-5-32-7-35-6-28-1-10v-35l4-20 6-17 7-14z"/>
        <path fill="#625328" d="M651 973h13l16 4 13 7 11 10 6 10v4l-20 8-8 1-9-10-9-5-4-1h-11l-14 7-9 14-2 9v18l4 12 7 9 6 5 4 2h20l10-5 6-9 2-6-27-1v-14l1-8 6-2h52l3 1v14l-3 17-11 20-7 7-15 7-13 3h-21l-16-2-11-4-10-7-10-9-5-8-3-15-1-11v-17l3-14 7-14 9-10 7-6 15-7z"/>
        <path fill="#9D853F" d="M515 973h9l17 4 14 7 10 9 8 11v3l-20 9-5 2-4-1-5-8-5-4-10-4h-14l-8 4-8 8-5 9-1 5v25l4 10 6 8 5 4 10 3h16l10-6 5-8 1-5-1-1-24-1v-13l1-10 15-1h45v11l-3 17-8 16-6 9-9 9-13 6-19 4-14-1-13-3-16-8-12-11-6-8-4-8-4-17v-9l3-21 4-11 6-9 12-12 10-6 16-5z"/>
        <path fill="#74622E" d="m1182 947 6 1-8 21-11 37-6 21-9 17-11 13-21 21-1 2 7-3 15-10 13-7 9-4 17-6 14-6 40-16 20-11 16-12 7-7 9-11h3l-7 17-8 13-8 10-11 13-13 12-10 8-9 6-13 8-16 9-16 6-10 3-9 2-14 2-48 4-2 1h-18l1-3h2l2-4 9-8 10-13 8-13 20-39 8-16 10-19 10-14 9-11 11-12z"/>
        <path fill="#625328" d="M1429 939h2l-1 8-7 20-3 13-3 12-2 10-6 24-6 17-8 15-9 12-9 10-11 10-12 8-16 8-4 3-13 2-10 2-7 1v-2l10-6 14-10 7-7 9-12 10-18 11-19 7-12 2-5 11-17 7-11 1-3-8 4-16 11-14 8-14 6-27 10-14 6-10 4-11 6-13 10-4 2 1-5 8-14 9-12 17-17 10-6 10-7 21-11 12-5 10-4 13-6 18-8 22-13 7-6 6-4z"/>
        <path fill="#E8C76C" d="m1112 1027 2 2-12 18-9 15-10 15-5 5-3 4h-2v2l-5 5-5 3-4 4-6 2-1 2-9 3-5 2h-3v2l-14 2v3l30-1 80-1 21-1 15-2 21-8 13-8 2-2 3 1-6 8-15 15-8 6-14 8-25 12-11 1v2l-22 5h-21l-26-4-9-3-10-2-7-2v-2l-9-1-20-7-30-11v-6l3-3 31-11 15-8 28-22 18-14 18-13 17-11z"/>
        <path fill="#74622E" d="m1233 850 2 1 1 76-1 23-7 21-7 14-4 7 4-2 8-8 7-8 12-13 16-16 22-18 11-10 8-7 13-14 9-15 7-14 2 1-1 16-5 20-5 12-9 19-7 9-4 6-11 13-7 7-11 9-9 8-12 7-8 5-12 6-20 11-16 8-21 10h-3l2-4 6-10 8-20 5-16 9-40 6-32 7-28 8-22 5-10z"/>
        <path fill="#73612E" d="m1339 730 3 3 2 9 2 26-1 12-2 18-2 10-7 23-11 24-8 14-12 14-32 34-16 16h-2l1-8 2-10v-32l-3-16-5-23-3-21-3-23-1-12v-32l1-7h3l4 10 9 21 6 12 10 24 4 16 1 20-1 24 2 1 3-9 8-22 14-29 12-21 8-15 8-20 3-12 2-18z"/>
        <path fill="#625328" d="m1305 605 4 2 12 23 6 17 4 18 1 26-1 18-3 12-3 13-12 27-13 28-10 25-2-2-2-6-2-10-6-16-13-25-5-10-11-20-12-22-8-21-4-18-1-15h2l7 11 7 9 9 10 8 9v2l4 2 10 13 8 13 7 16 3 8 1 6v10l2-1 4-34 1-17 3-11 1-11 3-12 3-23v-31l-2-8z"/>
        <path fill="#9D8540" d="M395 975h13l22 6 6 4-1 5-9 16-5-1-9-4h-11l-6 3-3 3-1 7 4 4 11 5 12 4 15 8 6 7 4 8v15l-3 12-6 11-9 7-12 5-16 2h-10l-11-2-14-6-7-5 1-5 9-17 3-1 9 5v2l10 2h14l6-3 3-4v-6l-4-6-4-3-15-5-16-7-8-7-3-5-2-7v-10l3-12 4-8 8-9 12-6z"/>
        <path fill="#9E8640" d="M768 974h10l22 5 9 4 1 4-9 17-5 1-12-4h-9l-8 4-1 2v9l8 5 24 9 9 6 7 8 2 7v14l-3 12-6 10-9 8-9 4-11 2h-20l-16-5-11-6-1-4 8-16 2-3 5 1 12 6 8 2h8l9-4 2-4v-7l-6-7-25-9-11-6-6-6-3-7v-22l8-16 9-7 12-5z"/>
        <path fill="#B3984A" d="M1702 981h2l-2 10-4 10-8 16h-2l-2 6-3 7-4 4-3 6-9 12-5 5-14 15-8 7-5 6-14 11-14 10-20 12-20 9-6 2-9-1v2l-10 1-4-9-2-6v-4l-2-1 4-10 7-8 9-6 13-10 19-11 22-12 16-9 22-12 10-6 5-4h3l1-3 13-10 10-10 11-14z"/>
        <path fill="#080704" d="M940 574h9l2 2v37l-3 3-27 3-20 5-16 6-20 10-10 7h-3l-1 3-12 9h-2l-2 4-5 3-4-2-8-7-13-13-3-4 1-5 11-10 13-10 19-12 25-13 27-9 19-4z"/>
        <path fill="#070603" d="m830 912 4 1 13 11 14 10 26 13 16 6 22 5 24 3 2 1v34l-1 4h-25l-18-3-19-5-19-7-17-8-20-12-14-11-3-3-11-9-2-3 10-10 6-7 8-7z"/>
        <path fill="#090704" d="M1130 790h35l2 4-2 21-4 23-5 17-8 20-8 16-9 16-14 18-10 11-7-1-13-12-7-8-2-2 1-6 9-10 12-18 11-20 7-18 5-21 3-25 2-4z"/>
        <path fill="#E8C76B" d="m1676 570 3 1 13 22 14 26 3 7v4h2l3 9 3 10 2 21v35l-4 21-3 6-4 17-5 10-4 10-6 10h-3l-2-8-1-8-3-9-4-26-3-30z"/>
        <path fill="#080704" d="m796 644 4 1 7 7 7 6 7 8 3 3-1 6-12 16-8 14-7 14-8 22-4 17-4 28-1 1h-39l-1-1v-10l2-20 5-24 10-28 8-16 8-14 12-17 9-10z"/>
        <path fill="#070603" d="M742 792h36l3 5 5 30 2 9 1 14 2 7 4 2 8 13 10 16 10 13 3 4-1 4-11 12-8 8-7 5-4-2-6-7v-2l-4-2v-3l-3-1-9-13-8-14-8-16-6-14-8-29-2-10v-28z"/>
        <path fill="#080704" d="m1071 915 4 1 18 18 5 6-1 5-8 8-15 11-3 1-4 4-18 10-20 9-22 7-19 4-7 1h-25l-1-2v-34l1-2 12-2 27-5 21-6 18-8 17-10 14-11z"/>
        <path fill="#F0D792" d="M1752 818h2v30l-4 21-6 21-4 8-5 12-4 9-3 4-2 5h-2v3h-2l-1 5h-2l-1 4-7 9-2 4-8 7-17 17-5 4-5 5-6 4-1 1h-10v2h-5l-1-7v-3l-2-10 3-5h-2l1-10 2-1 4-8 4-5 4-10 9-10 6-7 7-8 12-13 12-11h2l2-4 6-7h2l2-5 5-5 4-8 3-1v-3h2v-3h2l3-10 2-4h2l1-7z"/>
        <path fill="#625328" d="m1384 1108 4 1-5 4-6 4-8 6-14 10-5 5-10 9-8 7-15 14-13 11-13 10-18 11-14 6-24 8-10 1-2-1-1-4-6-12v-6l-10-1 5-4 22-12 16-10 30-18 16-9 10-6 9-3 14-5 26-8 25-7z"/>
        <path fill="#625328" d="m1242 532 6 2 11 7 12 12 12 18 5 10 4 11 2 9 1 19-2 24-2 11-3 21-2 24-2 1-10-15-9-11-8-10-22-22-7-8-9-9-11-14-9-17-4-11-2-10v-11l4 4 7 10 9 10 12 12 8 7 12 11 10 10 10 15 5 7 3 1-3-14-6-39-4-28-5-15-7-13-6-8z"/>
        <path fill="#080704" d="m1104 640 4 2 5 5v2h2l3 4v2h2l12 17 9 15 9 19 1 7h2l7 22 5 26 2 15v7l-6 3-32-1-3-4-3-25-5-21-4-12v-6l1-7-9-13-5-7-8-7-6-5-2-3-2-9 1-6z"/>
        <path fill="#0B0905" d="M955 575h15l23 3 21 5 22 8 16 8 12 7 5 3 13 9 10 8v2l4 2 4 4-1 5-17 17-4 3-5-1-3-3-3-7-3-13-1-3h-3l-4 6-6-1-4-3-15-2-18-6-10-4-2-2 1-7 4-7h-10l-10-3-3-2h-4l-4 7h-9l-6 5-4-1-1-1z"/>
        <path fill="#625328" d="m1346 1034 2 1-1 6-7 11-10 15-9 12-5 5h-2l-2 5-4 1-2 5-14 12-22 12-11 5-21 5-21 3-2 1-18 2h-11l-2-2 23-13 10-7 12-9 16-13 19-13 20-13 14-8 19-11 19-9z"/>
        <path fill="#D0B157" d="M1497 663h2l8 20 5 13 6 16 8 16 9 23 5 16 1 8v46l-2 7-4 3-2 3-4-5v-2l-5-10-4-11-4-10-3-5-1-7-4-6-4-14-2-17-6-1v3h-2v-2h-3l-7-8-3-4 1-4h-2l1-9 6-14 2-6 2-16z"/>
        <path fill="#090704" d="m858 883 6 1 5 4v2l4 1 10 7 19 10 18 6 31 6v34l-2 3-18-1-13-2-20-6-21-9-20-12-13-10-9-8 1-4 11-12z"/>
        <path fill="#090804" d="M938 619h11l2 3v29l-1 3-16 3-17 3-19 7-16 9-9 7-6 3-7 7-1 2-5-2-18-18-2-3 1-5 7-7 16-12 16-9 14-7 30-10z"/>
        <path fill="#74622E" d="m1598 1134 2 1-12 16-11 12-9 9-15 11-19 12-21 10-9 1-5 1h-3v-2l-8-1v2l-8-1-7-1-1-4h-6l-6-4-10-7-7-3-1-3-2 1-6-2 5-5 7-2 12-2 9-2 17-1 42-6 13-3 20-6 21-10z"/>
        <path fill="#625328" d="m1334 867 2 1-1 16-5 20-5 12-9 19-7 9-4 6-11 13-7 7-11 9-9 8-12 7-8 5-12 6-17 9h-2l1-5 4-2 2-5 1-1v-9h4v-2l3-1 3-6v-2h-2l-3 5-4 5-5 3-4-1 5-3 8-8 7-8 12-13 16-16 22-18 11-10 8-7 13-14 9-15z"/>
        <path fill="#0B0A05" d="M1086 790h36v18l-3 17-6 21-9 20-10 17-2 3h-2l-1 4-2 1-4 7-4 3-1 3-3 2-5-1-15-14-7-9 1-5 5-5h3l5 15 4 4h9l3-2v-4l-5-4-3-9-8-2-2-1v-5l9-14 9-20 4-15z"/>
        <path fill="#090804" d="M827 677h5l7 7 8 7 6 7-1 4-12 18-9 17-5 15-3 23-2 11-2 1h-33v-23l4-21 7-20 8-16 12-19z"/>
        <path fill="#9E8640" d="M1582 926h2l-2 11-5 20-4 25-3 24-3 16-1 2-1 9-5 18-12 25-6 9-5-1-1 5-5 2-2-12-3-5-2-12v-13l1-9 1-5 2-5 3-8 2-2v-3l4-9h2l-1-5h2l1-4 1-6 3-2 2-6 7-13 2-5h2l1-5 3-9 14-20z"/>
        <path fill="#625328" d="M515 973h9l17 4 14 7 10 9 8 11v3l-20 9-5 2-4-1-5-8-5-4-10-4h-14l-8 4-8 8-5 9-1 5v29l-3-2v-3l-4-1-1-4-5-2-10-7-4-2-4 1-1 18h-1l-1-6v-9l3-21 4-11 6-9 12-12 10-6 16-5z"/>
        <path fill="#9E8640" d="M1629 810h2l2 39 2 9v5l-2-4-4-10-1-3h2v-2h-3l-1 6v3l-2 26-2 33-3 21-1 14-3 16-1 17-4 26-2 6-4 11v3l2 1 1-3 5-2 2 2-8 5-11 8-12 10h-2l1-6 10-28 3-17 3-21 3-58 3-33 6-30 6-18 11-23z"/>
        <path fill="#625328" d="m827 1369 12 1 5 3 4 4v56l-1 9-5 6-2 1-12 1h-13l-9-2-5-5-1-6v-49l2-13 5-4 5-1z"/>
        <path fill="#625328" d="m1440 864 2 1-3 5-1 2-3 3h3l1 5 1 3h2l5 9v4l3-2 3-1v-3l4-1-7 11-11 12-12 11-11 7-16 9-19 10-19 9-10 7-13 9-2 1 1-6 11-19 10-14 12-13 6-7 8-7 10-9 16-12 11-9 9-7z"/>
        <path fill="#E7C66B" d="m1210 1190 6 2 2 7 6 13-1 2h2v2l-16 2-7 1v3l6 1v2h16l7 2-1 3 9 15v2h2l4 11-1 6-1 1-12-1-22-10-23-13-2-1v-2l-5-1-8-4v-2l-9-2v-2l-5-1-5-3-8-3-4-3v-2h-2v-3l2-1 10-1 2-1 10-1 4-2 7-2 5-2 9-1v-2l7-3 10-5z"/>
        <path fill="#D0B056" d="m1657 688 2 1v13l2 22 4 20 3 11 4 18 5 17 1 7-1-3h-2l-4-10-4-1-2 18-2 22-1 33v3l-1 11h2v5l-1 3 1 8v17l2 4v4l-5 5-1-3-1-33-5-32-7-35-6-28-1-10v-35l4-20 6-17 7-14z"/>
        <path fill="#625328" d="m1339 730 3 3 2 9 2 26-1 12-2 18-2 10-7 23-11 24-8 14-12 14-14 15-2-2 2-2 1-4h2l1-4 3-1-2-4v-16l1-4v-17l-1-4 11-23 12-21 8-15 8-20 3-12 2-18z"/>
        <path fill="#877236" d="m1485 812 2 4 1 55 1 15v42l-4 25-7 21-1 2-3-1-1 4-3 8-2-1 1-6h-2l-1-13v-4l-3-9 1-3 1-9 4-16 2-11-2-13-3-8-2-15-2-6-2-18 1-7h1l2-6 9-12 11-17z"/>
        <path fill="#0B0905" d="M935 659h16v34l-3 2-17 3-12 3-13 7-6 4h-3v2l-5 3h-2l-2 4-4 1-10-9-7-7-3-5-2-1v-4l8-7 13-10 16-9 18-7z"/>
        <path fill="#0D0B06" d="M960 748h5l11 9v2l5 2 2 3-1 4-3 4 1 5 7 8 2 5v9l-4 8-5 4-5 1h-7l-2 6-3 17h-18l-10-3-13-9-1-4 4-5 2-1h17l3 3 4-10 4-6v-6l-4-13v-2h-2l-2 5-12 3-4 2h-7l-4-2v-6l2-2 9-2 4-3 6-1 3-6v-7l5-5 8-6z"/>
        <path fill="#625328" d="m1158 480 5 1 21 11 21 14 10 9 7 7 10 15 9 19 6 21 4 20v5h-3l-6-4-7-8-9-10-11-13-13-18-10-15-15-26-12-17-7-10z"/>
        <path fill="#625328" d="m1289 986 2 1-7 17-8 13-8 10-11 13-13 12-10 8-9 6-13 8-16 9-8 2 1-3 8-1 1-4v-2l-9-4-13-5-9-4-2-1h-7l-2 2-4-1 5-3 20-7 19-8 40-16 20-11 16-12 7-7 9-11z"/>
        <path fill="#090804" d="M957 659h13l18 4 13 5 24 12 12 9 2 3v6l-7 8-9 8-2 1h-10l-18-10-15-6-11-3-10-2-2-5v-28z"/>
        <path fill="#E5C56A" d="M1189 1153h43l5 1v2l-17 7-23 10-17 9-7 1v2l-10 4h-4v2l-17 5-25 3-10-1-8-1v-1h23l9-2 3-8h-2l-3-6-10-7-8-5-1-3-4-1 4-2 3 1 1-4h11v-2l36-3z"/>
        <path fill="#0E0C06" d="m1045 891 5 1 10 9 7 8v5l-9 8-9 6-3 1-3 3-16 9-15 6-20 6-15 3-18 1-4-4v-33l26-5h12l7 6 3 6 6 5 6 1h12l7-9 10-8 1-4-6-2-1-2v-6l6-10z"/>
        <path fill="#0B0905" d="m958 619 13 1 18 3 17 4 17 7 11 10 10 14 3 4v7l-2 2-8-1-5-4-15 1-5-6-3-5-6-2-2 6-1 1h-7l-35-7-3-4v-27z"/>
        <path fill="#CEAF56" d="M1702 981h2l-2 10-4 10-8 16h-2l-2 6-3 7-4 4-3 6-9 12-5 5-14 15-8 7-5 6-3 2-5-1-1 3h-2l-2 2v-2h-3l-1 2v-7l-4-11v-15l2-4v-3l4-2 5-5 25-13 11-8h3l1-3 13-10 10-10 11-14z"/>
        <path fill="#73612E" d="m791 1028 9 3 8 6 6 7 2 7v14l-3 12-6 10-9 8-9 4-11 2h-20l-16-5-11-6-1-4 8-16 2-3 5 1 12 6 8 2h8l9-4 2-4v-7l-6-7-25-9-11-6-5-6 5 1 10 5 6 1 2 2 3 1v2h5v2l7 1 4 2 1-2 2 2h2l3 3 8 1 13-1 1-2h2l-2-6-4-6-7-6-7-4z"/>
        <path fill="#0B0905" d="m856 704 4 1 11 10 7 8 2 2-1 6-7 11-7 16-4 14-2 15h-33l-1-2v-12l2-13 7-21 8-16 7-11z"/>
        <path fill="#887236" d="m1165 1059 3 3 11 4 10 4 9 4 2 2-3 5-8 1-2 4-9 4-8 2-9 2-14 2-48 4-2 1h-18l1-3h2l2-4 9-8 10-13 3-4 6-1 5 2 6 1-2 9 7-3 15-10 7-4 7-2 4-1 4 1z"/>
        <path fill="#73612E" d="m1454 759 2 1-3 9v2l5 5 5 10 7 9 3 1 3-4 3 1-9 12-54 54-7 8-9 11-2 1 1-7 5-16 10-24 8-17 13-23 13-24z"/>
        <path fill="#0A0804" d="M885 856h5l8 7 10 6 7 4 17 5 6 4 4 3 8 1 1 1v27h-19l-15-4-9-3-21-10-11-8-3-3 1-6 6-9v-10z"/>
        <path fill="#74622E" d="M1259 1159h3v2l7 1 9 12 3 1 2 5 5 2 1 5h-3l1 3-5 5-15 8-22 8-15 4-7-1-1-4-6-12v-6l-10-1 5-4 22-12 16-10z"/>
        <path fill="#73612E" d="M757 1370h25l5 2 5 6 1 6v12l-3 10-9 15-10 14 22 1v14h-46v-11l4-8 13-17 9-14v-16h-6l-1 2-1 11h-18v-16l2-7z"/>
        <path fill="#625328" d="M395 975h13l22 6 6 4-1 5-9 16-5-1-9-4h-11l-6 3-3 3-1 7 4 4 11 5 12 4 15 8 6 7 4 8v15l-1 5h-1l-1-14-2-4-5-1v-4l-9-1-16-9-7-5-5-5-11-9-1-3-11-9-6-4-4 1-2-1 2-7 7-9 8-6 11-4z"/>
        <path fill="#E7C76B" d="m1144 1241 4 2 8 5v2l5 2 13 8v2l5 1v2h3v2l5 2 21 10 13 6 17 6 14 3 3 1 30 1 2 2-9 4-23 6-6 1h-49l-18-3-6-2-7-1v-2h-7l-14-5-1-4 5 2 11 2 1 2 6-2 4 1 2-1 2-3-2-1 7-3 1-2 1-11-4-2v-2h-2v-3l-6-2-12-9v-2l-5-1v-2h-3v-3l-5-2-4-2z"/>
        <path fill="#E8C86C" d="m1667 782 5 2 3 8v2h2v3h2l1 30v21l4-2 3-7h2l2-10 3-8 2 3-5 28v4l1 5-1 9-2 3 4-2 2 2-4 5-5 5-7 8-3 5-5 5-4 7-3 1-1-3-1-9v-16l-1-5 2-6h-2l-1-5 1-5-1-2 1-4 1-31 4-40z"/>
        <path fill="#625328" d="M867 1370h28l6 4 2 5v19l-3 9-9 14-10 15h23l-1 13h-45v-12l10-14 12-17 3-5 1-4v-11l-1-2h-5l-2 7-1 5h-17v-19l4-5z"/>
        <path fill="#B29749" d="M651 973h13l16 4 13 7 11 10 6 10v4l-20 8-8 1-9-10-9-5-4-1h-18l-11 1-11-4-6-5v-4l5-4 3-3 11-5z"/>
        <path fill="#625328" d="m1309 1235 8 1 27 6 25 4 15 1h33l28-6 12-4h3l-1 3-14 10-18 10-19 8-25 7-17 3-11 1-1-3h4l-10-3v-1h9l-5-5v-2l-3-1v-4l-5 1 3-5-3-2v2h-2l-3-6v-3h-5l-1-2-6-3-4-1-6-2-8-3z"/>
        <path fill="#73612E" d="m1242 532 6 2 11 7 12 12 12 18 5 10 4 11 2 9 1 19-2 24-3 13-6-3-1-5h-2l-5-14-2-3-3-12-2-9-2-1 1-3 2 1-3-6-1-4-2-1-4-28-5-15-7-13-6-8z"/>
        <path fill="#E8C86C" d="M1711 885v3l-1 4-8 4-3 3-4 8h-2l-1 5-3 5-3 3v17l1 1 2-2 1 2v8l4-1 1 5 2 4h6l6-4v3l-8 7-17 17-5 4-5 5-6 4-1 1h-10v2h-5l-1-7v-3l-2-10 3-5h-2l1-10 2-1 4-8 4-5 4-10 9-10 6-7 7-8 12-13z"/>
        <path fill="#9B843F" d="M938 1369h15l2 2-5 10h-2l-2 7h-2l-3 9-12 21-1 3h12l1-16h17v15l7 1 1 1v11l-1 2h-6l-1 15-17-1-1-14h-28l-2-1-1-3v-8l3-9 15-28 9-16z"/>
        <path fill="#625328" d="M536 1032h45v11l-3 17-8 16-6 9-4 3v-6l-10-7-6-2h-2l-4 1-1 2-5 2-3-1 10-6 5-8 1-5-1-1-24-1v-13l1-10z"/>
        <path fill="#0E0C06" d="m1085 713 9 1 5 3 2 4 9 3 5 12 6 25 1 6v16l-2 3-20-1-7-1-1-1-1-7v-20l-5-4-4-11-4-6 1-5 2-2h5v-4l-8-1-1-5 5-4z"/>
        <path fill="#9E8640" d="m1243 748 3 2 5 14 7 16 6 12 5 12 1 10v11l-1 18-3 20-2 4-1 7-2 1-4-7-3-8-2-2-3-13-1-1-3-21-3-23-1-12v-32l1-7z"/>
        <path fill="#74622E" d="m1501 1036 1 2-9 13-8 11-8 13-27 48-8 12h-2v-2l-3 1-1-1v-5l4-1-5-6-2-4 1-1-3-1v-2h3l-2-5v-3h-2l-3-6h2v-2h2l1-3 3-5 4-2 2-4 10-10 5-6 11-8 13-10z"/>
        <path fill="#B4984A" d="m1112 1027 2 2-12 18-9 15-10 15-5 5-3 4h-2l-1 2-4-1-8-4-15-1-5 4-11 7-12 7-4 3-25 8-2 2h-3v2h-2l4 4 19 7 2 1v3l2 1-5-1-30-11v-6l3-3 31-11 15-8 28-22 18-14 18-13 17-11z"/>
        <path fill="#9E8640" d="M1208 1224h39l15 3 2 2 5 6 6 12 8 9v3h2v3h2l3 5-1 6 1 1 2 1v2l-24-1-19-5-16-6v-1h10l1-6-3-7v-4h-2l-7-12-3-5 2-1-1-2-6-1-16-1z"/>
        <path fill="#887236" d="m1598 1134 2 1-12 16-11 12-9 9-15 11-12 8h-7l-2 2h-2l-1-2-4 1-6-5-2-1v-2l-4-2-1-3-4 1-7-4v-2h3l-5-4 8-2 20-3 1-2 11-2 20-6 21-10z"/>
        <path fill="#897336" d="m1232 853 2 2v38l-1 39-4 13-4 6-4-1 1 3-3 5-5 3-1 2-4 1v4h-2v-5h-2v-3h2l-1-6 1-4 1-14 2-6 2-23 8-29 8-21z"/>
        <path fill="#73612E" d="M663 1032h52l3 1v14l-3 17-5 9h-3v2l-2-1 1-2-7 1-6-4-6-3v-2h-2l-1-8-16-3-4-2v-2l-5 1-2-3v-13z"/>
        <path fill="#0C0A05" d="M940 699h10l1 1v24l-2 4-11 3-9 5-12 2-8 4-6-1-11-10-3-4 2-4 8-7 14-8 11-5 9-3z"/>
        <path fill="#0E0C06" d="M1061 790h20v11l-2 13-6 21-11 21-3 4-5-2-9-9-5-3-3-10v-10l2-6h2l1-7 18-2 11-6v-5l-10-4-1-5z"/>
        <path fill="#0F0D06" d="M956 699h9l11 2 18 8 14 9 3 2-1 5-8 6-7 1v2l4 2-1 4-7 6-5-1-4-5-1-8-5 2-3 1h-9l-3-1 2-5 1-3-7-1-2-2v-23z"/>
        <path fill="#B2974A" d="m1657 688 2 1v13l2 22 2 15-3-1-1-9-1 5h-1l-2 11v15l-1 2-1 16v27l-3 15-2 3-4-17-4-21-1-10v-35l4-20 6-17 7-14z"/>
        <path fill="#0B0A05" d="m916 825 5 1 2 4 4 1 13 6 10 4-1 10-2 4-11 5h-2l-3 6h-2l-2 4-1 1-8-1-7-3v-2l-5-1-12-9-1-6 7-8z"/>
        <path fill="#897336" d="m1228 660 4 2v3h2l4 4 3 6 3 1 2 5 4 5 2 1 3 7 4 9 4 11 5 12 3 11 1 2v6l-1 2 3 1 1 13 3 4-1 3-2-4-3 1-4-4-8-16-11-20-12-22-7-18-1-13-2-9z"/>
        <path fill="#B2974A" d="m1305 605 4 2 12 23 6 17 4 18 1 26-1 18-2 6h-2v2l-4-1-2-3-6-27-5-15v-6h-2l-1-5h2v-10l1-1-1-14v-17h-2l-2-8z"/>
        <path fill="#74622E" d="M1224 649h2l7 11 7 9 9 10 8 9v2l4 2 10 13 2 7 5 11 2 6 1 4-1 2h2v9h3l1 13h2l2 6-1 5 2 4v18l2 4-1 1-1 8h-2v2l2 1-4 1-1-1-2-10-6-16-7-14 1-2h3l2 3-3-6-1-13-2-1v-8l-2-4-2-9-5-12-4-11-2-3-2-6-2-3v-4l-4-2-3-4v-2l-2-1-1-2-4-4-1-3-3-2v-2h-2l-1-3-2-1-1 5 2 6v10l-2-4-3-14z"/>
        <path fill="#74622E" d="M1308 618h1l2 32h-2l1 7-2 4 1 2-1 2h2l3 12 4 13 5 23 3 2v2h2l1-2-1 11-4 13-4 9-6 3 1-6-4-2-5-21h-2v-9h-2v-6l-2-4 1-8 1-11 3-12 3-23z"/>
        <path fill="#E6C66A" d="M1702 981h2l-2 10-4 10-8 16h-2l-2 6-3 7-4 4-3 6-6 8h-6l1 3h-2l-4 6-3-1-2 2v-2h-2l1 6-5-2v-3l-5-1v-9h-5l1-3 1 1 2-4h2v-2l4-3h3l1-3h3l2-5 6-5 5-5 11-9 9-9 11-14z"/>
        <path fill="#0F0D06" d="m1045 700 5 2 8 10 6 9v10l7 11 1 3v10l-4 3h-6l-1-1v-6l-5 1h-10l-3-1-3-7v-10l2-2 5-2 3-7v-4l-4 1-3 4-2 5-2 1h-8l-4-7 1-6 9-10z"/>
        <path fill="#887236" d="m458 1034 5 1 6 4 11 7 1 4 4 1 2 4 3 3 6 10 7 6 10 3h19l10-5h3l8 4 8 6-1 7-7 6-11 5h-3l1-3 7-4-3-3v-2l-6-2-1-1-28-5-11-3-9-3-10-6-10-9-6-3h-4l-1 5-2-3v-22z"/>
        <path fill="#887236" d="m1254 1225 15 1 8 2v2l9 2 6 4 1 6h2l1-4 2 7 9 9 7 8-1 9 3 2v4l1 4h-12l-34-4v-1h12l9 1-2-2-3-1 2-4-2-8h-2v-3h-2l-4-7-6-7-7-13-4-4-8-2z"/>
        <path fill="#B5994B" d="m1676 570 3 1 13 22 11 20-1 2h-4l-3 4-3 7-6 20-5 26-2 19 2 24v13h-1l-3-30z"/>
        <path fill="#73622E" d="M1204 1041h7l5 9 5 12v3l-4 2-3 6-18 10-8 2 1-3 8-1 1-4v-2l-9-4-13-5-9-4-2-1h-7l-2 2-4-1 5-3 20-7 19-8z"/>
        <path fill="#9C853F" d="m1567 1077 2 1-5 5h-2l-3 9 3 6 2 5v3h2l2 6 2 3 6 1h4l3-3 6-1h1l8-5 5-3h5l-4 4-19 11-18 8-6 2-9-1v2l-10 1-4-9-2-6v-4l-2-1 4-10 7-8 9-6z"/>
        <path fill="#B19649" d="m1111 1068 12 3-2 9h6l1-1h9l5 5 5 3v2l-1 1h2l1 3-2 3-48 4-2 1h-18l1-3h2l2-4 9-8 10-13 3-4z"/>
        <path fill="#73612E" d="m1339 730 3 3 2 9 2 26-1 12-2 18-2 10-6 20h-2l-1 2-4-5-4-27-1-4 1-8h2v-8l6-14 4-15 2-18z"/>
        <path fill="#110F07" d="M895 796h6l4 4 1 2 1 11 4 2 2 3v5l-15 14-9 9-5-1-1-3-2-1-1-3-4-4-6-13v-5h7l2 2 1 10 4-2 2-4v-5l-8-6 1-6 5-5 5-3z"/>
        <path fill="#887236" d="m1269 806 2 2 6 18 2 19v7l-1 1-1 15-1 2v12l-2 13-4 13-4 2v2h2v3l-4-2-1 5-2 3-1-8-1-16-2-21-2-5-2-12 3 2 3 10 3 3 1-7 3-9 2-15 1-18v-11l-1-6z"/>
        <path fill="#B09549" d="M867 1370h28l6 4 2 5v19l-3 9-3 5-3-1v-2h-3l-1-3-3-2-1-3-1-17h-7l-2 7-1 5h-17v-19l4-5z"/>
        <path fill="#D0B157" d="m772 1409 5 2 4 4v6l-10 14 22 1v14h-46v-11l4-8 10-13 8-7z"/>
        <path fill="#CEAF56" d="m1663 937 1 2-2 5-3 4-1 2-4 5v3h-3l1 6-1 3 2 1-3 5 2 10v10l4-1 1-2 8 1-3 3-4 1v2l-9 5h-3v2l-5 1v2l-5 1-2 4h-5v-2h-2v3l-5-1 2-17 2-9 2-2h3l1-5 3-2 2-7 12-16z"/>
        <path fill="#0A0905" d="M787 792h33l3 9 2 15v7l-1 1h-10l-9-2-13-1-5-5-1-3v-20z"/>
        <path fill="#877236" d="m372 990 7 1 5 3 7 4v16l4 4 11 5 12 4 15 8 6 7 4 8v15l-1 5h-1l-1-14-2-4-5-1v-4l-9-1-16-9-7-5-5-5-11-9-1-3-11-9-6-4-4 1-2-1 1-3 6-3 2-5z"/>
        <path fill="#9D853F" d="M1505 817h2v2l3 1 1 4 1 8 1 4v4l3 10 2 10 5 18 1 2 4 1v-2h3l1-5 2-1-2 9-10 25-10 18-8 11-1-4 5-17 2-17v-30l-3-31-2-13z"/>
        <path fill="#CDAE55" d="m366 1066 6 2 5 3v2l5 2 11 4 7 2 1 5 4 2 2 5 2 1-4 3-9 2h-18l-9-2-12-6-2-2 1-5 9-17z"/>
        <path fill="#887336" d="M1263 552h5l1 4 5 1 12 19 6 16 2 9 1 19-2 13h-3l-1-3-3-1-7-18-8-31-6-18-2-2 2-4z"/>
        <path fill="#74622E" d="m618 984 2 1-4 4h-2l2 5 8 5 7 2 12-1 3 2-11 6-9 14-2 9h-2l-1 6h-3v-5l-7 1-3-5v-2h-2l-4-5-4-2-1-6 2-8 7-10 9-9z"/>
        <path fill="#AF9448" d="m412 1064 12 2 4 3 5 1 4 9-1 6-5 6-10 6-13 4-11 1h-10l-11-2-2-2h22l9-2 3-2-5-7-2-1-1-4-7-2-11-4-1-2 6 1h14l8-3 4-5z"/>
        <path fill="#73612E" d="m1499 1087 2 2-3 8-3 7-6 16 1-2 3 1-1 8 4-2 3 3h3v8l2-2 1 3h14l5-1 3 2-25 5-20 5-5 1-21 5v-3l7-9 11-13 9-11 4-7 6-10z"/>
        <path fill="#9D8540" d="m1229 1177 8 1 11 14 5 9-1 4h-2l-1 3-14 6-10 1-2-1-1-4-6-12v-6l-10-1 5-4z"/>
        <path fill="#73612E" d="m1233 1101 8 2-2 1v2h2l8 16h-2l-2 5-12 3-16 2-2 1-18 2h-11l-2-2 23-13 10-7 12-9z"/>
        <path fill="#9D853F" d="m633 977 2 1-7 4-3 3-1 2 8 2 24 2 12 3 8 1 1 2 15 6v2l6 1 5 2 4 1-14 6-6 2h-5l-9-10-9-5-4-1h-18l-11 1-11-4-6-5v-4l5-4 3-3z"/>
        <path fill="#887236" d="m1133 1026 5 1 1 5 7 11v2h-2l1 2 2-1-1 5h-2l1 4-22 22h-1v-5l-15-3 2-5 12-23 3-1 2-6 4-2v-2h3l1-2-2-1z"/>
        <path fill="#CFAF56" d="M768 974h10l14 3 2 5 2 1v-2l5 1 2 1v2h4l-2 5-4 2v6l-3 2-22-1-4-3-14-3-1-3h-8l2-2v-4l5-2 3-5z"/>
        <path fill="#74622E" d="m522 1041 4 2 3-2 1 2h2l2-2v3h11l6 5 1 2 6 3 6 7 3 5h4v9l-7 10-4 3v-6l-10-7-6-2h-2l-4 1-1 2-5 2-3-1 10-6 5-8 1-5-1-1-24-1v-13z"/>
        <path fill="#151209" d="M798 848h10l5 6 8 10 8 8 6 10 8 7-1 4-8 8-4 2-9-10-11-16-10-17-3-8z"/>
        <path fill="#B5994B" d="M756 978h3l-2 4-2 2h-4l1 5 5 1 1 2 14 3 4 3 22 1 3-1v-6l5-5 1-2h-4v-2l-7-2v2l-4-2v-3l8 1 9 4 1 4-9 17-5 1-12-4h-19l-2 10-2 2 2 5v3l-6-1-9-3 2-2-6-3-1 3-6-4v-9l4-5-1-5 2-5 10-7z"/>
        <path fill="#887236" d="m1454 759 2 1-3 9v2l5 5 5 10 7 9 3 1 3-4 3 1-9 12-8 8-6 1 1 1-3 1-10-15-5-4v-2h-2l2-5 3-11 11-19z"/>
        <path fill="#F2D894" d="m1043 1121 5 1v2l8 1 11 3 6 3 7 4v7l-5-1v3l6 1-2 1v2h-9l-9-3-20-2-9-3v-2l-6-1v-8l-3-1 1-4 7-1h7z"/>
        <path fill="#B4994B" d="M1208 1224h20l18 1 3 4 9 19 9 18v6l-2 1h-9l-18-6-5-2v-1h10l1-6-3-7v-4h-2l-7-12-3-5 2-1-1-2-6-1-16-1z"/>
        <path fill="#D1B157" d="m1699 613 5 2 5 11v2l-4 1 1 3-5 6-2 4-2 7-6 22-5 17-2 8-1 11-2 8h-1l-2-18 1-18 5-28 3-13 3-7 3-9 3-6z"/>
        <path fill="#A68D44" d="m1203 1093 3 1-6 8-15 15-8 6-14 8-6 3h-2l2-6-4-7h-2v-3l-131-1-1-3h2v2l30-1 80-1 21-1 15-2 21-8 13-8z"/>
        <path fill="#D1B157" d="M1063 1066h9l9 5 1 6-7 9h-2l-1 2-4-1-8-4-15-1-5 4-11 7-12 7-4 3-25 8-2 2h-3v2h-2l4 4 19 7 2 1v3l2 1-5-1-30-11v-6l3-3 31-11 10-5 10-3 11-8 15-10 1-2 5-3h4z"/>
        <path fill="#625328" d="m735 1075 1 4 5 1 18 4 4 2h4l1 2h8l1 1h9l2 1 9-1 9-6 4-2-2 5-7 7-12 6-11 2h-20l-16-5-11-6-1-4z"/>
        <path fill="#CEAE55" d="m1200 1220 2 1v1l6 1v2h16l7 2-1 3 9 15v2h2l4 11-1 6-1 1-12-1-22-10-7-4 2-1 8 2 8 3v-6l-5-7-2-4-2-5-6-6-5-3z"/>
        <path fill="#B69A4B" d="m1243 754 4 2 6 12 2 6-1 6h2l2 10 1 2h1v17l-3 7 1 7-1 1-1 11-2-3-2 4-4-15v-4h-2l-1-19h-2l-1-12v-23z"/>
        <path fill="#9A833E" d="m1598 1134 2 1-12 16-11 12-9 9-8 4-8 3-3-2 1-2-5-1-1-7-1 4h-2l-1-4 2-4 1-3 21-7 21-11z"/>
        <path fill="#EBD28D" d="M1718 680h1v25l-4 21-3 6-4 17-5 10-4 2-3-5 1-8-2-3 1-5 2-4-2-1 2-1 4-17 2-6 2-7 3-8 2-2 1-5h1l1-6h4z"/>
        <path fill="#857035" d="M1616 836h1l-1 13-3 10-1 7-1 1v19l1 4v10l-1 4-1 13-1 9v5h-2l-1 18-3 13v9l1 3-2 1-1 9h-2l1 6-3 14-3 4 2-21 2-12 3-58 3-33 6-30z"/>
        <path fill="#9E8640" d="m1465 742 1 2-1 10 6 10 1 3 4 2 2 5h2v3h7l-2 6-5 9-4 1-4 4-6-5-6-9-3-7-5-4-1-3h2l1-6 1-3 1-5z"/>
        <path fill="#877135" d="m791 1028 9 3 5 5 8 9 1 2v15l-3 6-5 6-10-1-7 1v-2l-3-1v-10h-2l-6-7-25-9-11-6-5-6 5 1 10 5 6 1 2 2 3 1v2h5v2l7 1 4 2 1-2 2 2h2l3 3 8 1 13-1 1-2h2l-2-6-4-6-7-6-7-4z"/>
        <path fill="#99823E" d="m1305 605 4 2 4 7-1 4v12l1 15 4 15 3 12 7 23 2 2v-35l2 3 1 26-1 18-2 6h-2v2l-4-1-2-3-6-27-5-15v-6h-2l-1-5h2v-10l1-1-1-14v-17h-2l-2-8z"/>
        <path fill="#887236" d="M678 1033h40v14l-1 7-4 1v2l-4 1-11-6-5-2-3-4-12-3-3-3-7-2 1-2h2v-2z"/>
        <path fill="#9F8740" d="m1231 862 2 3v22l-1 22-4 8-6 7h-7l-2-5v-11l1-1 2-11 4-9 4-15h2v-2h2l1-4h2z"/>
        <path fill="#E7C66B" d="m1515 712 1 2-1 2 5 1 8 16 1 3 1 11 3 4 1 4v9l-4 6-2-3h-2v-2l-3-1-6-12-4-10-2-14v-11l3-1-1-3z"/>
        <path fill="#877135" d="M1308 618h1l2 32h-2l1 7-2 4 1 2-1 2h2l3 12 4 13 5 23 3 2v2h2l1-2-1 11-1 5-4 1-2 1-4-9-4-11-3-14-2-5-2-15v-15l2-15z"/>
        <path fill="#B19649" d="M1189 1153h43l5 1v2l-17 7-23 10-7 4-2-1 5-4-3-5-5-6-6-4-3-1-15-1v-1z"/>
        <path fill="#857035" d="m1501 1036 1 2-9 13-8 11-8 13-5 6h-3v3l-4 5-2-3v-17h-6l2-4 17-13 17-11z"/>
        <path fill="#74622E" d="m464 1011 4 4 7 8 6 5v3l3 1 4 20-1 4-2-2v-3l-4-1-1-4-5-2-10-7-4-2-4 1-1 18h-1l-1-6v-9l3-21 2-5z"/>
        <path fill="#110F07" d="M956 888h11l10 4 4 5 5 10v3l-9 3-5 1h-15l-2-2v-23z"/>
        <path fill="#887236" d="m1242 1169 10 2 7 11 6 8 4 4-1 5-5 4-4 1v2l-14 5-3-1 7-3 3-3-1-4-4-8-8-10-2-3-6-2 5-4z"/>
        <path fill="#CBAC54" d="M1152 1155h24l7 2v2l5 4 4 5 2 2-1 4-4 2-3 3-9 4h-2v-3l-2-2-1-5-8-7-7-4-4-3-28-1v-1z"/>
        <path fill="#CBAC54" d="M938 1369h15l2 2-5 10h-2l-2 7h-2l-3 9-4 7h-3l-1 2-4-2h-3v-2l-4-1 3-11 11-20z"/>
        <path fill="#73622E" d="m386 978 5 1 5 2v2l4 2 2 4 2 1v2l8 1-2 1 1 2 5 1-3 2-10 1-8 4-4 3-1-9-6-3-5-3-7-1h-2l-1 5-4 3h-3l2-5 6-8 3-3z"/>
        <path fill="#CFB056" d="m1210 1190 6 2 2 7 6 13-1 2h2v2l-16 2-7 1v-3l3 1-4-10-2-4-3-3h-9l3-2 14-7z"/>
        <path fill="#010101" d="M820 1383h8l1 1v51l-1 1h-8l-1-1v-51z"/>
        <path fill="#CEAF56" d="M1108 1117h40l3 1 4 5 3 6-3 6-17 8-4-1h3v-9l-5-6-4-3v-2l-9-3-11-1z"/>
        <path fill="#9D8640" d="m1142 1069 7 1 9 7 2 1v3l4 2v2l4 2-5 5-12 3-4-1 1-4-3 1-1-2h3l-1-2-5-3-4-3v-2l-3 1h-6l-3 1 1-3 11-7z"/>
        <path fill="#846F35" d="m1339 730 3 3 2 9 2 26-1 12-3 9h-2v-3l-5-1-3-9v-7l2-7 4-31z"/>
        <path fill="#AF9448" d="M941 1405h17v15l7 1v8l-2 5h-5l-4-3-8-2-5-5z"/>
        <path fill="#A08841" d="m803 1417 5 2 6 8 5 9 5 2 1 4 4 4v2h-23l-5-5v-24z"/>
        <path fill="#75632F" d="m1112 1027 2 2-12 18-2 2-1-3 1-3-7 1-11 6h-4l-2 4-10 7-10 9-5 5-14 10-12 8-6 1 4-4 13-10 14-11 18-14 18-13 17-11z"/>
        <path fill="#B3984A" d="M1218 1183h4l1 2h3l4 5 6 11 2 4v3h-2v4l-6 3-7-1-1-4-6-12v-6l-10-1 5-4z"/>
        <path fill="#CBAC54" d="m1100 1081 13 4 7 7v2h-2l-1 3-7 2-11 1-2 1h-18l1-3h2l2-4 4-3 5-3 4-1 1-5z"/>
        <path fill="#8A7437" d="m802 1402 3 1v2h5l6 11 3 17 1 2 12 1 8 5 2 4v3l-2 1-12 1h-13l-7-1v-1h21l-6-7v-2l-6-4-6-11-4-5-4-1-2 1v-16z"/>
        <path fill="#867035" d="M1216 1114h5l2 2v3h2l1 4 2 2-3 1 1 3-10 2-1 2-18 2h-11l-2-2 23-13z"/>
        <path fill="#877236" d="m618 984 2 1-4 4h-2l2 5 8 5 7 2 12-1 3 2-11 6-3 4h-3l-3 6-1-3-8-2-2-4h-2v-3l-8-4 1-4 6-9z"/>
        <path fill="#846F34" d="m910 1418 5 5 5 3 11 2v2l6 1 5 2 2 3 12 6 1-7h2l-1 15-17-1-1-14h-28l-2-1-1-3v-8z"/>
        <path fill="#9A833E" d="m776 1386 5 2 6 3v2l4 1v10l-8 14-2 1-1-5-7-4-5 3-6 5 2-4 10-15 1-12z"/>
        <path fill="#625328" d="m1182 947 6 1-8 21-11 37-1 5-2-1v-8l3-7 2-7 4-10 2-11 4-12-8 7-10 11-10 14-5 8-6 11-4 6-4 5 1-5 10-19 10-16 13-16 11-12z"/>
        <path fill="#836E34" d="m756 1372 6 3v2l4-1v3l2 3-2 4-1 11h-18v-16l4-7z"/>
        <path fill="#73612E" d="m526 976 15 1 14 7 10 9v3l-2-1-1 4-2-1-3 1-9-6-11-6-8-4-9-3v-2l5 1z"/>
        <path fill="#73612E" d="m1198 583 5 5 2 3 3 1v3l4 2v7h4l3 5 3 3 1 4 3 3v5h5l3 7v3h3v3h2l3 6-9-3-8-8v-4l-2-1-6-9-7-7-4-8-1-4-1-2 1-2-5-1z"/>
        <path fill="#806B33" d="m1508 837 2 2 4 50 1 5v5h2v3h5v-2h2l-3 9-9 16-8 11-1-4 5-17 2-17v-30l-2-20z"/>
        <path fill="#9E8641" d="m996 1141 7 1 2 2h-4l2 5 9 10 6 9 8 10 9 11 9 12 8 11 14 14 1 2v6l-5-5-9-10-11-14-10-13-11-14-13-16-11-15z"/>
        <path fill="#98813D" d="m1203 1093 3 1-6 8-15 15-8 6-6 4-2-1 1-5h3l1-2h-3v-2l-3-1-2-2-6-1v-1l10-2 18-7 13-8z"/>
        <path fill="#73612E" d="m883 1383 3 1 1 17 1 3 3 2v3h3l2 5-10 14h-2v-3l-3 1-4-3-1-4v-7l7-11 1-4v-11z"/>
        <path fill="#19160B" d="M1061 690h5l3 3v2l9 2 3 2v2l5 1 1 6-5 3-11 1-9-10-3-5v-5z"/>
        <path fill="#75632F" d="M821 1371h21l4 4 1 3v12l-6 1-5-3-5-2-2-6-3-1-1-2-4-1v-2l-4-1z"/>
        <path fill="#9A823F" d="m1250 1294 5 1 30 1 2 2-9 4-23 6-6 1h-49l-18-3-4-2 9 1 16 2h31l20-2 3-5-6-4z"/>
        <path fill="#6C5B2B" d="m1676 570 3 1 8 13v2l-4 1-2 12-2 36v62l2 18v13h-1l-3-30z"/>
        <path fill="#9D853F" d="m1682 585 6 1 8 14-1 2-5-1v2h-3l-2 12-4 19-2 26h-1v-25l2-36 1-9z"/>
        <path fill="#9B833F" d="m1119 1053 11 6v2l5 1-1 4-11 11h-1v-5l-15-3 2-5 4-8z"/>
        <path fill="#72602D" d="m802 1383 3 4v2l5-1 1 4h2l3 6 2 21v10h-1l-2-13-5-8v-3h-5l-1-2h-2l-1 34h-1v-49z"/>
        <path fill="#CAAB54" d="m1224 1287 10 3 14 3 5 4 5 2-4 7-20 2h-14v-1l14-2v-9l1-1-4-1-1-4-6-2z"/>
        <path fill="#917B3B" d="M1189 1153h43l5 1v2l-17 7-10 4h-2v-5l-3-2v-2h-2v-2l-42-1v-1z"/>
        <path fill="#DDBD65" d="M938 1369h15l2 2-5 10h-2l-2 7h-2l-1 3-7-2 1-5-3 1v-3l-2-1 2-1 2-10z"/>
        <path fill="#625328" d="m1427 1026 3 1 1 5h-3v6l6-1 2-4 3-1 2-4v2h2l1-3 2 3-7 8-8 6-10 9-10 7-4 2 2-5 6-7 10-19z"/>
        <path fill="#221D0F" d="m883 731 4 1 7 6 4 5-1 4-15 1-6 4h-4l1-6 9-14z"/>
        <path fill="#AD9247" d="M1017 1094h2v2l-9 3v2l-12 4h-3l-1 4-7 3-4 1v2h-2l4 4 19 7 2 1v3l2 1-5-1-30-11v-6l3-3 31-11z"/>
        <path fill="#18150A" d="M966 843h6l7 6 2 3v5l-2 2h-12l-7-3 1-8z"/>
        <path fill="#CBAC54" d="M1636 922h2l1 10 1 1v11l-2 10-3 1-1-2v8h-5v-8l1-4v-8l2-5 2-12z"/>
        <path fill="#867135" d="m862 1372 2 1-3 3 1 4 8 4 8-1-3 13h-17v-19z"/>
        <path fill="#CEAF56" d="M881 1371h16l5 5v14h-6l-7-8-5-4-3-5z"/>
        <path fill="#9C843F" d="M1095 1042h6l-2 10-7 11-4-5-4-4-10 3-5 2v2l-3-1 11-8 1-2 10-4z"/>
        <path fill="#74622E" d="m831 1423 7 1 9 8v10l-5 5-3-6-7-4-4-2 2-7z"/>
        <path fill="#B09549" d="m772 1409 5 2 4 4v6l-8 11-1-3v-4l-3 1-1-3-5-3-5 5-2 1 2-4 12-12z"/>
        <path fill="#B3974A" d="m368 1024 5 2 7 6 2 1 1 3 3 3 2 4h-3v2l-2-1 1-2h-2v2l-7-1-5-3-5-8-2-4 4-2z"/>
        <path fill="#AE9448" d="m923 1394 1 2-1 5 3 1v2l4-1 3 2h3l-6 11-4 2-4-1v-2h-5l-1-1v-8z"/>
        <path fill="#625328" d="M1414 832h1v7l-2 2 1 2-1 3h-3v11l-1 5h2l1-5h5l-4 6-7 7-6 8-2 1 1-7 5-16z"/>
        <path fill="#846F34" d="m818 1433 2 2 12 1 8 5 2 4v3l-2 1-12 1h-13l-7-1v-1h21l-6-7v-2l-5-3z"/>
        <path fill="#B99D4D" d="m1656 860 2 4 3 2v4h2v5l-1 3 1 8v17l2 4v4l-5 5-1-3-1-33-2-14z"/>
        <path fill="#282210" d="m866 828 5 5 8 11 3 5-1 5-3 2h-5l-2-7-3-8-3-7v-5z"/>
        <path fill="#897336" d="m776 1386 5 2 6 3v2l4 1v10l-2 2-4-3-5-2-4-2-1-2v-10z"/>
        <path fill="#B29749" d="m801 1430 4 1 1 3 4 1 5 6 2 4v3h-11l-5-5z"/>
        <path fill="#897336" d="m910 1418 5 5 5 3 11 2v2l6 1 4 3h-21l-8-3-2-3z"/>
        <path fill="#917B3B" d="m1059 1064 2 1-8 9-15 10-11 8-8 2 4-4 13-10 14-11 5-4z"/>
        <path fill="#867135" d="m1203 1093 3 1-6 8-11 11-2-1v-2l-13 1-4 1v-2l18-7 13-8z"/>
        <path fill="#A08741" d="m749 1383 7 1 5 2 3 4v5l-5 1h-11v-10z"/>
        <path fill="#9D8540" d="m792 978 8 1 9 4 1 4-9 17-5 1-8-3v-3h10l3-1v-6l5-5 1-2h-4v-2l-7-2v2l-4-2z"/>
        <path fill="#816C33" d="m1679 575 4 2 4 7v2l-4 1-2 12-2 36h-1v-57z"/>
        <path fill="#665629" d="m1243 748 3 2 1 6-4-2v44h2l3 25 1 3v18h-1l-3-21-3-23-1-12v-32l1-7z"/>
        <path fill="#9D8540" d="m886 1388 4 5 5 6 2 1 1 3h3l-2 6-2 3-3-1v-2h-3l-1-3-3-2-1-3z"/>
        <path fill="#9C843F" d="M867 1370h12v1l-11 1 2 3 3 1v3l5 1v2l4 1-7 1-5 1-8-4-2-2 1-4 3-4z"/>
        <path fill="#72612E" d="M1600 933h1l1 35 2 6-2 1-1 9h-2l1 6-3 14-3 4 2-21 2-12z"/>
        <path fill="#877236" d="m883 1383 3 1 1 17 1 3 3 2v3h3l2 5-3 2-7-1-4-5 1-9 1-4v-11z"/>
        <path fill="#2D2612" d="M1065 778h10l6 2v4l-4 2h-12l-6-3 1-3z"/>
        <path fill="#D3B358" d="M944 1406h13v7l-3 6-6-2-6-5 1-4z"/>
        <path fill="#7F6B33" d="M1582 926h2l-2 11-5 20h-1v-15h-2l-1 2-5 2 2-5 11-14z"/>
        <path fill="#B79B4C" d="M1231 862h1l-1 14-1 2-2 12-4 7h-3l1-3 2-15 4-12 3-1z"/>
        <path fill="#6E5D2C" d="M1224 649h2l7 11 7 9 5 7-5-1-3-6-3-2v-2h-2l-1-3-2-1-1 5 2 6v10l-2-4-3-14z"/>
        <path fill="#625328" d="m1440 967 2 4v18l-1 3 2 1-4 6-2 1v2h-2l1-15z"/>
        <path fill="#393017" d="M826 792h6l2 2-2 20-3 1-4-15v-6z"/>
        <path fill="#6B5A2B" d="m1309 1200 2 4 1 1v6l-2 1h-7l-10-3v-2l9-4z"/>
        <path fill="#211C0E" d="m1075 764 4 1 1 1v8l-3 2h-11l-1-4 8-7z"/>
        <path fill="#7C6932" d="m1560 957 1 3-3 7-2 1-4 10-5 8-2 6-3 1v8l-2 4h-4l-1-2 10-20 14-24z"/>
        <path fill="#B79B4C" d="m763 1023 7 1 10 5 9 2 6 4v3h-2v-3l-2 3-17-6-9-7z"/>
        <path fill="#6B5A2B" d="m1230 682 2 1 12 27 9 16 2 3v5l-4-5-14-26-7-18z"/>
        <path fill="#877337" d="M1017 1094h2v2l-9 3v2l-15 5-16 8-4 4-2 1v-6l3-3 31-11z"/>
        <path fill="#9A833F" d="m1039 1200 4 2 4 6 8 7 11 11 1 2v6l-5-5-9-10-11-14z"/>
        <path fill="#907A3A" d="m1202 1126 3 4 1-4 3 4-1 2h-2l-9 3h-11l-2-2 9-5 8-1z"/>
        <path fill="#625328" d="M1198 974h1l-1 16-2 10-4 9-2 9-5-1 11-33z"/>
        <path fill="#846F35" d="M1212 1153h20l5 1v2l-17 7-4 1 2-4v-6h-6z"/>
        <path fill="#625328" d="m1233 850 2 1 1 76-1 23h-1l-1-95-2-1z"/>
        <path fill="#625328" d="M757 1370h25l5 2 5 6 1 6v12h-1l-1-11-1-5-4-2-5-3-8-3-16-1z"/>
        <path fill="#69592A" d="m770 1434 6 1 17 1v14h-46v-11h1v10h44v-11h-20l-2-1z"/>
        <path fill="#846F34" d="M1105 1034h3l-1 5-6 10-2-3 1-3-7 1-11 6-2-1 9-6 13-7h3z"/>
        <path fill="#967F3C" d="m1243 754 4 2v3l-2 3v32l2 7v16h-1l-1-19h-2l-1-12v-23z"/>
        <path fill="#6B5A2B" d="m1249 845 2 3 3 13 3 12 1 3v45l-3 3 1-9v-32l-3-16-4-18z"/>
        <path fill="#7F6B33" d="m431 1035 4 2 5 7 3 6v15l-1 5h-1l-1-14-3-5-3-8-2-6z"/>
        <path fill="#9A833F" d="M1702 981h2l-2 10-4 10h-5v-2l5-1h-3l-4 1-3 4-2-1 11-13z"/>
        <path fill="#6F5E2C" d="M1509 908h1l1 9 4 1-2 5-7 11-3 2 1-7 4-14z"/>
        <path fill="#957E3C" d="m1657 688 2 1v26h-1l-2-11h-4l-3 1 3-9z"/>
        <path fill="#A08841" d="m1483 824 2 3-1 16-2-2v3h-2l-1-4-2-1v-9l1 2h2l-1-5z"/>
        <path fill="#806C33" d="M1629 810h2v23h-1l-1-10h-4l-3 7h-2l-1 4-1-3z"/>
        <path fill="#A58C44" d="m1024 1180 5 2 9 11 11 15h-3l-5-7-3-1-12-16z"/>
        <path fill="#C6A852" d="m1021 1093 3 1-4 4-7 5-16 5-3-1 1-2 12-4h3v-2l6-3h3v-2z"/>
        <path fill="#241F0F" d="M845 792h13l1 1v6l-1 1-8-1-5-4z"/>
        <path fill="#7E6A32" d="M1616 836h1l-1 13-3 10-1 7-4 2 1-10 6-20z"/>
        <path fill="#7F6B33" d="m1339 730 3 3 2 9v9l-5-3-1-2v-15z"/>
        <path fill="#7F6B33" d="m1733 690 4 3-1 2-1 34-2 4z"/>
        <path fill="#8B7638" d="M1263 1296h22l2 2-9 4-7 1 2-4-10-2z"/>
        <path fill="#6D5D2C" d="m1501 1036 1 2-8 12-1-3h-7v2l-4-1z"/>
        <path fill="#BA9E4D" d="m996 1141 7 1 2 2h-4l2 5 9 10v2l-3-1-9-9-4-6z"/>
        <path fill="#625328" d="m1184 1017 1 2h2v5l-3 1 1 6-7 3h-3l2-4 6-10z"/>
        <path fill="#74622E" d="M858 1377h1l1 12 11 5 1 2h-14z"/>
        <path fill="#7D6A32" d="m673 1006 6 1v2h2v2h2v2h9l6-1-2 2-9 3h-5l-9-10z"/>
        <path fill="#68582A" d="M1211 912h1l-1 18-3 11-3 12-1-4z"/>
        <path fill="#625328" d="m1444 1027 2 3-7 8-8 5v-3l-3-1 4-2h2l2-4 3-1 2-4v2h2z"/>
        <path fill="#69592A" d="M909 1423h1l2 7 8 3 21 1-1 3v-2h-28l-2-1-1-3z"/>
        <path fill="#72602E" d="M1224 867h1l-1 7-5 19-3 6-1-4 6-20z"/>
        <path fill="#B69A4B" d="M801 996h1v7l-2 2-7-1-5-2v-3h10l3-1z"/>
        <path fill="#625328" d="m1448 931 2 3-2 11-2 5v8l-3-1 1-11z"/>
        <path fill="#4F4320" d="m858 883 4 1-5 3-22 22 1-4 11-12z"/>
        <path fill="#43391C" d="m828 913 2 1-27 27v-3l9-9 6-7 8-7z"/>
        <path fill="#7E6A32" d="m1598 1134 2 1-9 12-2-4-4-1z"/>
        <path fill="#6C5B2B" d="m1428 1039 3 1-1 5-6 5h-2v-7l3-3h2z"/>
        <path fill="#DFC16C" d="m1000 1144 9 1 2 2-3 3h-2l1 5-7-7z"/>
        <path fill="#927C3B" d="m1229 858 4 1v6l-4 2-1 3h-2l-1 2v-8l2-4h2z"/>
        <path fill="#7A6731" d="M1245 804h1l2 19 1 3v18h-1l-3-21z"/>
        <path fill="#C2A656" d="m1147 1292 5 2 11 2 1 4 3 1-8-1-11-4z"/>
        <path fill="#A08841" d="M701 1034h15l-1 5h-8l-6-2z"/>
        <path fill="#927B3B" d="m770 1434 6 1 17 1v13h-1v-11h-20l-2-1z"/>
        <path fill="#7C6932" d="m1076 1051 2 1-12 9-7 4-2-1 11-9 4-3z"/>
        <path fill="#ECCB6E" d="M749 1441h2l2 6 2-1h7l2 3h-16z"/>
        <path fill="#625328" d="m1302 1203 4 1v2h-4l2 4-1 1-8-1-2-1v-2z"/>
        <path fill="#96803F" d="M1711 885v3l-1 4-8 4-10 10v-3l11-11z"/>
        <path fill="#846F34" d="m1232 853 2 2v32h-1l-1-28-3-1-1 2 1-4z"/>
        <path fill="#C7AA59" d="M1704 799h1v7l-5 10-4 2 3-9 1-2h2l1-6z"/>
        <path fill="#7D6A32" d="M1639 740h1l1 30 1 2-1 13h-1l-1-10z"/>
        <path fill="#705F2D" d="m1203 1093 3 1-6 8-3 2-1-2h-5l4-3z"/>
        <path fill="#826D34" d="M1599 982h2v2h-2l1 6-3 14-3 4 1-12h2l1-13z"/>
        <path fill="#625328" d="M1257 883h1v38l-3 3 1-9z"/>
        <path fill="#6F5E2C" d="m1499 1087 2 2-3 8-3 7-2 4-4 2 2-5z"/>
        <path fill="#927C3C" d="M1649 823h3l1 4-1 4 2 7 1 5-1 5-2-4-3-17z"/>
        <path fill="#7E6A32" d="m1183 1105 4 1v3l-13 2-4 1v-2z"/>
        <path fill="#68582A" d="m1095 1036 2 1-7 5-3 3-11 7-2-1 15-11z"/>
        <path fill="#625328" d="m1432 1010 2 4 2 5-4 1v6h-4l1-5z"/>
        <path fill="#5F5027" d="m1045 700 3 1-5 4-14 14v-3l8-9z"/>
        <path fill="#99823F" d="m1490 690 1 4-2 10-3 8-2-1 3-12z"/>
        <path fill="#625328" d="M520 1043h1v12h26v3l-3-1-24-1z"/>
        <path fill="#786530" d="M764 1007h1l1 9 8 5 5 2v1l-8-1-6-3-1-1z"/>
        <path fill="#A18842" d="m1036 1082 3 1-9 7-5 3-6 1 4-4 7-3z"/>
        <path fill="#9E8641" d="M807 986h1l-1 7-4 8h-1l-1-9 5-5z"/>
        <path fill="#A38A43" d="m1663 937 1 2-2 5-8 7-2 3-2-1z"/>
        <path fill="#75632F" d="M733 1000h1l1 20h3l-1 9-2-3-2-4z"/>
        <path fill="#73612E" d="m1657 688 2 1v26h-1l-2-22-2 1 2-5z"/>
        <path fill="#937D3D" d="M1152 1209h8v1l-8 2-9 1v4h-3v-2h-2v-3l2-1 10-1z"/>
        <path fill="#A28A45" d="M1053 1144h8l9 3 8 1v1h-9l-15-3z"/>
        <path fill="#6B5A2B" d="m987 1106 3 1-14 7-1 5h-2v-6l3-3z"/>
        <path fill="#E0C065" d="m1085 1095 6 1 2-1v3h-2v2h-11v-2z"/>
        <path fill="#8C7638" d="m740 990 1 2 1 6-4 2v2l-4 2 1-5z"/>
        <path fill="#AC9247" d="m1529 738 2 3 5 13-1 2-2-1-3-7-1-1z"/>
        <path fill="#AC9247" d="m1034 1193 5 2 8 10 2 4-3-1-5-7-3-1z"/>
        <path fill="#8E7839" d="M1603 1104h5l-4 4-8 5-2-1 4-5z"/>
        <path fill="#6A5A2B" d="m1448 1074 2 1-10 10-2 4-4 1 2-4z"/>
        <path fill="#B5994B" d="m1698 991 1 3-4 4-4 1-3 4-2-1 8-9z"/>
        <path fill="#C6AC62" d="M1752 818h2v9l-5 6-1-3z"/>
        <path fill="#605127" d="m847 656 2 1-13 13-1 3-1-4 7-8z"/>
        <path fill="#DDBF6B" d="M1709 950v3l-7 6h-4l-1-5h6z"/>
        <path fill="#6F5E2C" d="m1232 663 4 1 9 11-4 1-3-4-1-3-3-2v-2h-2z"/>
        <path fill="#625328" d="m1112 1027 2 2-3 3-1-1-7 3-2 2-4-1 10-6z"/>
        <path fill="#6F5E2D" d="M1629 810h2v23h-1l-1-18h-2z"/>
        <path fill="#68582A" d="m1246 718 3 1 6 10v5l-4-5-5-9z"/>
        <path fill="#877236" d="M1646 711h1l-1 10-1 1v6l-2 3h-2l2-11z"/>
        <path fill="#625328" d="M1351 1276h2v4l-9 1h-13v-1l16-2z"/>
        <path fill="#6C5B2B" d="m1526 1164 2 1-5 2-15 2v1h-5v-2l9-2z"/>
        <path fill="#6E5D2C" d="m1240 703 3 4 5 10-1 2-3-3-4-7z"/>
        <path fill="#8D783A" d="M1497 663h2l2 4-1 3h-2l-3 9-1-4z"/>
        <path fill="#6F5D2C" d="M1440 1176h6l-4 1v6l-2 1-6-2 5-5z"/>
        <path fill="#B29649" d="m986 1121 7 1 13 5v3l2 1-5-1v-3l-11-3-6-2z"/>
        <path fill="#75632F" d="m507 1077 22 1v1l-20 1-2-1z"/>
        <path fill="#6F5D2C" d="m431 1035 4 2 5 7-1 2-1-1-2 2-4-10z"/>
        <path fill="#6A5A2B" d="m1227 1153 10 1v2l-10 3v-3z"/>
        <path fill="#645428" d="m1433 1089 2 4-4 4h-2v2h-3l1-4z"/>
        <path fill="#D3B358" d="M1034 1086h2l-1 3-9 6-3-1z"/>
        <path fill="#A18942" d="m1661 1023 2 1-6 5-1 4-3 2-3-4z"/>
        <path fill="#6F5E2D" d="M1243 966h3l-1 6-4 1-2 6-1-2 2-8z"/>
        <path fill="#9C853F" d="m1483 824 2 3-1 5-3 2-2-7z"/>
        <path fill="#F3DA97" d="M1718 680h1v12h-2l1-5h-3l-1 3v-7h4z"/>
        <path fill="#615227" d="m814 625 2 1-12 12-1 3-1-4 4-5z"/>
        <path fill="#BA9E4D" d="m1669 1017 2 1-4 6-4 4h-2l-1 2v-3l4-5z"/>
        <path fill="#826D34" d="M1541 995h1v6l-2 4h-4l-1-2 3-6z"/>
        <path fill="#6C5B2B" d="m1243 748 3 2 1 6-4-2v9h-1v-14z"/>
        <path fill="#625328" d="M1209 1014h4l-1 3-10 5-1-3h4v-2h3z"/>
        <path fill="#6C5C2B" d="M1582 926h2l-2 11-1-3h-2l-1-3z"/>
        <path fill="#967F3C" d="m1339 733 4 4v8l-1-3h-2l-1 2z"/>
        <path fill="#CAAD5B" d="m1131 1232 3 1v2h3l3 3 4 2-4 1-7-3v-3h-2z"/>
        <path fill="#645528" d="M1460 1145h1v6h5v1l-11 2 2-4z"/>
        <path fill="#6B5B2B" d="m1520 1136 7 1v1l-10 2h-6l2-3h6z"/>
        <path fill="#625328" d="m1164 1011 3 1-3 12-2 3v-8l1-1z"/>
        <path fill="#9C8440" d="M756 978h3l-2 4-2 2-6-1 3-3z"/>
        <path fill="#9C8440" d="m1673 780 2 3 3 10-1 4v-3h-2l-2-8z"/>
        <path fill="#F0D589" d="m1154 1210 5 2-3 2-1 2h-4v-2h-2v-2z"/>
        <path fill="#6A5A2B" d="m1226 664 2 2 2 6v10l-2-4-2-10z"/>
        <path fill="#98813F" d="m1200 1193 2 1-4 4v1l-11 1 3-2z"/>
        <path fill="#8A7437" d="M1091 1042h2v2l-11 6-2-1 9-6z"/>
        <path fill="#645528" d="m1427 1026 3 1 1 5h-3v2l-3 1 1-7z"/>
        <path fill="#625328" d="m1192 1023 5 1-4 3-6 3-2-1 2-3z"/>
        <path fill="#877236" d="M788 1000h14l-2 4-7-1-5-2z"/>
        <path fill="#7F6B33" d="M1545 986h1v5l-4 2-2 4-1-2 4-8z"/>
        <path fill="#7F6C33" d="m980 729 3 1 1 9 4 6-4-2-2-3-1-8-4-1z"/>
        <path fill="#A88F49" d="m1042 1138 4 3v2l-7-1-7-2 4-1 6 2z"/>
        <path fill="#705F2D" d="m1474 974 2 2-1 5-2 5-1-2-2-1 3-6z"/>
        <path fill="#897437" d="m1249 762 3 4 3 10-3-2-1-4-2-1z"/>
        <path fill="#846F34" d="M1309 635h1l1 15h-2l-1 5h-1v-6l1-1z"/>
        <path fill="#806C34" d="m996 1141 7 1-4 1 2 8-4-4z"/>
        <path fill="#7B6831" d="m1064 1058 4 1-6 5-5 1 5-5z"/>
        <path fill="#C1A450" d="M1664 1048h5l-3 6-3 1-2-2 2-3z"/>
        <path fill="#A08841" d="m1340 748 3 1-1 9-2 1-3-9h2z"/>
        <path fill="#EBCA6D" d="M749 1441h2l2 8h-5z"/>
        <path fill="#72602D" d="m1110 1030 1 3-3 3v-2h-3v2l-3-1 4-4z"/>
        <path fill="#705F2D" d="m1129 1030 2 3-4 2-3 6h-2l2-6z"/>
        <path fill="#D1B257" d="M1630 963h2l-2 9-1 2h-2l1-8z"/>
        <path fill="#9D8541" d="m1633 952 2 1v2h2l-2 9-2-4z"/>
        <path fill="#625328" d="M1254 925h2l3 4-4 4h-2z"/>
        <path fill="#5C4E25" d="m1040 919 2 1-11 11v-3l5-5z"/>
    </g>
</svg>
